<svg xmlns="http://www.w3.org/2000/svg" xmlns:xlink="http://www.w3.org/1999/xlink" viewBox="0 0 205.3 419"><defs><style>.cls-1{fill:#151616;}.cls-2{fill:none;}.cls-3{fill:url(#linear-gradient);}.cls-4{fill:#3a4d57;}</style><linearGradient id="linear-gradient" x1="-7.34" y1="5180.06" x2="212.71" y2="4798.92" gradientTransform="translate(0 -4780)" gradientUnits="userSpaceOnUse"><stop offset="0" stop-color="#bfc1bf"/><stop offset="0.04" stop-color="#bdbfbd"/><stop offset="0.06" stop-color="#b5b6b5"/><stop offset="0.08" stop-color="#a7a8a7"/><stop offset="0.1" stop-color="#939593"/><stop offset="0.11" stop-color="#7a7b7a"/><stop offset="0.12" stop-color="#5b5b5b"/><stop offset="0.14" stop-color="#353635"/><stop offset="0.15" stop-color="#0c0c0c"/><stop offset="0.15"/><stop offset="0.21" stop-color="#020202"/><stop offset="0.23" stop-color="#090909"/><stop offset="0.24" stop-color="#141514"/><stop offset="0.25" stop-color="#252625"/><stop offset="0.26" stop-color="#3b3c3b"/><stop offset="0.27" stop-color="#565756"/><stop offset="0.28" stop-color="#767776"/><stop offset="0.29" stop-color="#9a9c9a"/><stop offset="0.29" stop-color="#bfc1bf"/><stop offset="0.55"/><stop offset="0.61" stop-color="#020202"/><stop offset="0.63" stop-color="#090909"/><stop offset="0.64" stop-color="#141514"/><stop offset="0.65" stop-color="#252625"/><stop offset="0.67" stop-color="#3b3c3b"/><stop offset="0.67" stop-color="#565756"/><stop offset="0.68" stop-color="#767776"/><stop offset="0.69" stop-color="#9a9c9a"/><stop offset="0.7" stop-color="#bfc1bf"/><stop offset="0.87"/><stop offset="0.89" stop-color="#040404"/><stop offset="0.91" stop-color="#101010"/><stop offset="0.93" stop-color="#242424"/><stop offset="0.95" stop-color="#404140"/><stop offset="0.97" stop-color="#646564"/><stop offset="0.98" stop-color="#909190"/><stop offset="1" stop-color="#bfc1bf"/></linearGradient></defs><title>fsfsAsset 4@32x</title><g id="Layer_2" data-name="Layer 2"><g id="Layer_1-2" data-name="Layer 1"><path class="cls-1" d="M205.3,99.4v28.8a1.22,1.22,0,0,1-1.2,1.2H203V98.3h1.1A1.13,1.13,0,0,1,205.3,99.4Z"/><path class="cls-1" d="M203.1,129.4V393.7A25.29,25.29,0,0,1,177.7,419H27.6A25.35,25.35,0,0,1,2.2,393.7V25.3A25.35,25.35,0,0,1,27.6,0h24V6.7H28.1A20.1,20.1,0,0,0,8,26.8V392.3a20.1,20.1,0,0,0,20.1,20.1H177.2a20.1,20.1,0,0,0,20.1-20.1V26.8A20.1,20.1,0,0,0,177.2,6.7H153.8V0h24a25.35,25.35,0,0,1,25.4,25.3V129.4Z"/><path class="cls-2" d="M197.3,26.8V392.3a20.1,20.1,0,0,1-20.1,20.1H28.1A20.1,20.1,0,0,1,8,392.3V26.8A20.1,20.1,0,0,1,28.1,6.7H51.5v6.8A10.24,10.24,0,0,0,61.7,23.7h81.9a10.18,10.18,0,0,0,10.2-10.2V6.7h23.4A20.1,20.1,0,0,1,197.3,26.8Z"/><path class="cls-1" d="M153.7,6.7v6.8a10.24,10.24,0,0,1-10.2,10.2H61.7A10.18,10.18,0,0,1,51.5,13.5V0H153.7Zm-25.5,7.2a2.2,2.2,0,1,0-2.2,2.2A2.22,2.22,0,0,0,128.2,13.9Zm-10.9,0a2,2,0,0,0-2-2H90a2,2,0,0,0,0,4h25.3A2,2,0,0,0,117.3,13.9Z"/><path class="cls-3" d="M175.8,417.4H29.5a25.89,25.89,0,0,1-25.7-26V27.6a25.82,25.82,0,0,1,25.7-26H175.9a25.89,25.89,0,0,1,25.7,26V391.4A26,26,0,0,1,175.8,417.4ZM29.5,3.6a23.88,23.88,0,0,0-23.7,24V391.4a23.82,23.82,0,0,0,23.7,24H175.9a23.88,23.88,0,0,0,23.7-24V27.6a23.82,23.82,0,0,0-23.7-24Z"/><path class="cls-4" d="M126,11.7a2.2,2.2,0,1,1-2.2,2.2A2.22,2.22,0,0,1,126,11.7Z"/><path class="cls-4" d="M115.3,12a2,2,0,1,1,0,4H90a2,2,0,0,1,0-4Z"/><path class="cls-1" d="M2.2,126.3v31.2h-1A1.22,1.22,0,0,1,0,156.3V127.5a1.22,1.22,0,0,1,1.2-1.2Z"/><path class="cls-1" d="M2.2,87.5v31.2h-1A1.22,1.22,0,0,1,0,117.5V88.6a1.22,1.22,0,0,1,1.2-1.2l1,.1Z"/><path class="cls-1" d="M2.2,59.6v9.8h-1A1.22,1.22,0,0,1,0,68.2V60.7a1.22,1.22,0,0,1,1.2-1.2l1,.1Z"/><rect class="cls-1" x="197.3" y="37.9" width="5.8" height="2.9"/><rect class="cls-1" x="2.2" y="37.9" width="5.8" height="2.9"/><rect class="cls-1" x="197.3" y="378.2" width="5.8" height="2.9"/><rect class="cls-1" x="2.2" y="378.2" width="5.8" height="2.9"/></g></g></svg>